{
	"asset":{
		"generator":"Khronos glTF Blender I/O v4.5.47",
		"version":"2.0"
	},
	"scene":0,
	"scenes":[
		{
			"name":"Scene",
			"nodes":[
				0,
				1,
				2,
				3,
				4,
				5,
				6,
				7,
				8
			]
		}
	],
	"nodes":[
		{
			"mesh":0,
			"name":"Ground",
			"scale":[
				0.5,
				0.5,
				0.5
			]
		},
		{
			"mesh":1,
			"name":"WallW.",
			"scale":[
				0.5,
				0.5,
				0.5
			],
			"translation":[
				-0.5002568960189819,
				0,
				-0.0031340436544269323
			]
		},
		{
			"mesh":2,
			"name":"WallE.",
			"scale":[
				0.5,
				0.5,
				0.5
			],
			"translation":[
				-0.050256915390491486,
				0,
				-0.0031340436544269323
			]
		},
		{
			"mesh":3,
			"name":"WallN.",
			"rotation":[
				0,
				0.7071068286895752,
				0,
				0.7071068286895752
			],
			"scale":[
				0.5,
				0.5,
				0.5
			],
			"translation":[
				-0.050256915390491486,
				0,
				-0.45313403010368347
			]
		},
		{
			"mesh":4,
			"name":"WallS.",
			"rotation":[
				0,
				-0.7071068286895752,
				0,
				0.7071068286895752
			],
			"scale":[
				0.5,
				0.5,
				0.5
			],
			"translation":[
				-0.050256915390491486,
				0,
				0.4468659460544586
			]
		},
		{
			"name":"CharSlot.1",
			"rotation":[
				0.7071068286895752,
				0,
				0,
				0.7071068286895752
			],
			"scale":[
				0.125,
				0.125,
				0.125
			],
			"translation":[
				0.14904575049877167,
				0,
				0.199754998087883
			]
		},
		{
			"name":"CharSlot.2",
			"rotation":[
				0.7071068286895752,
				0,
				0,
				0.7071068286895752
			],
			"scale":[
				0.125,
				0.125,
				0.125
			],
			"translation":[
				-0.25255560874938965,
				0,
				0.19936321675777435
			]
		},
		{
			"name":"CharSlot.3",
			"rotation":[
				0.7071068286895752,
				0,
				0,
				0.7071068286895752
			],
			"scale":[
				0.125,
				0.125,
				0.125
			],
			"translation":[
				0.14904575049877167,
				0,
				-0.21741454303264618
			]
		},
		{
			"name":"CharSlot.4",
			"rotation":[
				0.7071068286895752,
				0,
				0,
				0.7071068286895752
			],
			"scale":[
				0.125,
				0.125,
				0.125
			],
			"translation":[
				-0.24887581169605255,
				0,
				-0.2224462330341339
			]
		}
	],
	"materials":[
		{
			"alphaMode":"BLEND",
			"doubleSided":true,
			"name":"Material.001",
			"pbrMetallicRoughness":{
				"baseColorTexture":{
					"index":0
				},
				"metallicFactor":0,
				"roughnessFactor":0.5
			}
		}
	],
	"meshes":[
		{
			"name":"Plane",
			"primitives":[
				{
					"attributes":{
						"POSITION":0,
						"NORMAL":1,
						"TEXCOORD_0":2
					},
					"indices":3,
					"material":0
				}
			]
		},
		{
			"name":"Cube.001",
			"primitives":[
				{
					"attributes":{
						"POSITION":4,
						"NORMAL":5,
						"TEXCOORD_0":6
					},
					"indices":7
				}
			]
		},
		{
			"name":"Cube.002",
			"primitives":[
				{
					"attributes":{
						"POSITION":8,
						"NORMAL":9,
						"TEXCOORD_0":10
					},
					"indices":11
				}
			]
		},
		{
			"name":"Cube.003",
			"primitives":[
				{
					"attributes":{
						"POSITION":12,
						"NORMAL":13,
						"TEXCOORD_0":14
					},
					"indices":15
				}
			]
		},
		{
			"name":"Cube.004",
			"primitives":[
				{
					"attributes":{
						"POSITION":16,
						"NORMAL":17,
						"TEXCOORD_0":18
					},
					"indices":7
				}
			]
		}
	],
	"textures":[
		{
			"sampler":0,
			"source":0
		}
	],
	"images":[
		{
			"mimeType":"image/png",
			"name":"NESW.png",
			"uri":"NESW.png"
		}
	],
	"accessors":[
		{
			"bufferView":0,
			"componentType":5126,
			"count":4,
			"max":[
				1,
				0,
				1
			],
			"min":[
				-1,
				0,
				-1
			],
			"type":"VEC3"
		},
		{
			"bufferView":1,
			"componentType":5126,
			"count":4,
			"type":"VEC3"
		},
		{
			"bufferView":2,
			"componentType":5126,
			"count":4,
			"type":"VEC2"
		},
		{
			"bufferView":3,
			"componentType":5123,
			"count":6,
			"type":"SCALAR"
		},
		{
			"bufferView":4,
			"componentType":5126,
			"count":24,
			"max":[
				0.050000011920928955,
				0.5,
				0.800000011920929
			],
			"min":[
				-0.050000011920928955,
				0,
				-0.7999999523162842
			],
			"type":"VEC3"
		},
		{
			"bufferView":5,
			"componentType":5126,
			"count":24,
			"type":"VEC3"
		},
		{
			"bufferView":6,
			"componentType":5126,
			"count":24,
			"type":"VEC2"
		},
		{
			"bufferView":7,
			"componentType":5123,
			"count":36,
			"type":"SCALAR"
		},
		{
			"bufferView":8,
			"componentType":5126,
			"count":40,
			"max":[
				1.1077542304992676,
				0.5189286470413208,
				0.7999999523162842
			],
			"min":[
				0.8499999046325684,
				0,
				-0.800000011920929
			],
			"type":"VEC3"
		},
		{
			"bufferView":9,
			"componentType":5126,
			"count":40,
			"type":"VEC3"
		},
		{
			"bufferView":10,
			"componentType":5126,
			"count":40,
			"type":"VEC2"
		},
		{
			"bufferView":11,
			"componentType":5123,
			"count":60,
			"type":"SCALAR"
		},
		{
			"bufferView":12,
			"componentType":5126,
			"count":38,
			"max":[
				0.22258491814136505,
				0.5652247071266174,
				0.800000011920929
			],
			"min":[
				-0.050000011920928955,
				0,
				-0.7999999523162842
			],
			"type":"VEC3"
		},
		{
			"bufferView":13,
			"componentType":5126,
			"count":38,
			"type":"VEC3"
		},
		{
			"bufferView":14,
			"componentType":5126,
			"count":38,
			"type":"VEC2"
		},
		{
			"bufferView":15,
			"componentType":5123,
			"count":60,
			"type":"SCALAR"
		},
		{
			"bufferView":16,
			"componentType":5126,
			"count":24,
			"max":[
				0.050000011920928955,
				0.5,
				0.800000011920929
			],
			"min":[
				-0.050000011920928955,
				0,
				-0.7999999523162842
			],
			"type":"VEC3"
		},
		{
			"bufferView":17,
			"componentType":5126,
			"count":24,
			"type":"VEC3"
		},
		{
			"bufferView":18,
			"componentType":5126,
			"count":24,
			"type":"VEC2"
		}
	],
	"bufferViews":[
		{
			"buffer":0,
			"byteLength":48,
			"byteOffset":0,
			"target":34962
		},
		{
			"buffer":0,
			"byteLength":48,
			"byteOffset":48,
			"target":34962
		},
		{
			"buffer":0,
			"byteLength":32,
			"byteOffset":96,
			"target":34962
		},
		{
			"buffer":0,
			"byteLength":12,
			"byteOffset":128,
			"target":34963
		},
		{
			"buffer":0,
			"byteLength":288,
			"byteOffset":140,
			"target":34962
		},
		{
			"buffer":0,
			"byteLength":288,
			"byteOffset":428,
			"target":34962
		},
		{
			"buffer":0,
			"byteLength":192,
			"byteOffset":716,
			"target":34962
		},
		{
			"buffer":0,
			"byteLength":72,
			"byteOffset":908,
			"target":34963
		},
		{
			"buffer":0,
			"byteLength":480,
			"byteOffset":980,
			"target":34962
		},
		{
			"buffer":0,
			"byteLength":480,
			"byteOffset":1460,
			"target":34962
		},
		{
			"buffer":0,
			"byteLength":320,
			"byteOffset":1940,
			"target":34962
		},
		{
			"buffer":0,
			"byteLength":120,
			"byteOffset":2260,
			"target":34963
		},
		{
			"buffer":0,
			"byteLength":456,
			"byteOffset":2380,
			"target":34962
		},
		{
			"buffer":0,
			"byteLength":456,
			"byteOffset":2836,
			"target":34962
		},
		{
			"buffer":0,
			"byteLength":304,
			"byteOffset":3292,
			"target":34962
		},
		{
			"buffer":0,
			"byteLength":120,
			"byteOffset":3596,
			"target":34963
		},
		{
			"buffer":0,
			"byteLength":288,
			"byteOffset":3716,
			"target":34962
		},
		{
			"buffer":0,
			"byteLength":288,
			"byteOffset":4004,
			"target":34962
		},
		{
			"buffer":0,
			"byteLength":192,
			"byteOffset":4292,
			"target":34962
		}
	],
	"samplers":[
		{
			"magFilter":9729,
			"minFilter":9987
		}
	],
	"buffers":[
		{
			"byteLength":4484,
			"uri":"room1.bin"
		}
	]
}
